# xmcd CD database file
#
# Track frame offsets:
#	150
#	26650
#	37518
#	62198
#	74545
#	87613
#	97245
#	114740
#	129105
#	142035
#	157350
#	171100
#	193860
#	204895
#	222583
#	248778
#	263078
#	278508
#
# Disc length: 3882 seconds
#
# Revision: 0
# Processed by: cddbd v1.5.2PL0 Copyright (c) Steve Scherf et al.
# Submitted via: CDex 1.70beta2
#
DISCID=130f2812
DTITLE=Ramsey Lewis - Finest Hour
DYEAR=2000
DGENRE=Jazz
TTITLE0=The "In" Crowd
TTITLE1=Limelight
TTITLE2=Delilah
TTITLE3=Black Eye Peas
TTITLE4=Carmen
TTITLE5=Sometimes I Feel Like a Motherless Child
TTITLE6=Consider the Source
TTITLE7=Little Liza Jane
TTITLE8=Here 'Tis
TTITLE9=Something You Got
TTITLE10=Hang On Sloopy
TTITLE11=A Hard Day's Night
TTITLE12=Hi-Heel Sneakers
TTITLE13=Wade in the Water
TTITLE14=Up Tight
TTITLE15=Day Tripper
TTITLE16=One, Two, Three
TTITLE17=Soul Man
EXTD=YEAR: 2000
EXTT0=
EXTT1=
EXTT2=
EXTT3=
EXTT4=
EXTT5=
EXTT6=
EXTT7=
EXTT8=
EXTT9=
EXTT10=
EXTT11=
EXTT12=
EXTT13=
EXTT14=
EXTT15=
EXTT16=
EXTT17=
PLAYORDER=
